# xmcd
#
# Track frame offsets: 
#        150
#        47915
#        86244
#        142060
#        161961
#
# Disc length: 2682 seconds
#
# Revision: 0
# Processed by: cddbd v1.5.2PL0 Copyright (c) Steve Scherf et al.
# Submitted via: ExactAudioCopy v0.95a4
#
DISCID=490a7805
DTITLE=袁音 - 秋语 中提琴交响音诗
DYEAR=2007
DGENRE=
TTITLE0=格林卡  中提琴与钢琴奏鸣曲1. 第一乐章 快板
TTITLE1=2. 第二乐章 小广板、稍缓慢
TTITLE2=舒伯特A小调中提琴与钢琴奏鸣曲3. 第一乐章 中庸的快板
TTITLE3=4. 第二乐章 慢板
TTITLE4=5. 第三乐章 小快板、稍快
EXTD=
EXTT0=
EXTT1=
EXTT2=
EXTT3=
EXTT4=
PLAYORDER=
